{
  "accessors": [
    {
      "bufferView": 2,
      "componentType": 5126,
      "count": 19259,
      "max": [
        0.2306685447692871,
        0.8624200820922852,
        2.0905323028564453
      ],
      "min": [
        -0.23073053359985352,
        -1.2500371932983398,
        -1.803406834602356
      ],
      "type": "VEC3"
    },
    {
      "bufferView": 2,
      "byteOffset": 231108,
      "componentType": 5126,
      "count": 19259,
      "max": [
        1.0,
        1.0,
        1.0
      ],
      "min": [
        -1.0,
        -1.0,
        -1.0
      ],
      "type": "VEC3"
    },
    {
      "bufferView": 3,
      "componentType": 5126,
      "count": 19259,
      "max": [
        1.0,
        1.0,
        1.0,
        1.0
      ],
      "min": [
        -1.0,
        -1.0,
        -1.0,
        -1.0
      ],
      "type": "VEC4"
    },
    {
      "bufferView": 1,
      "componentType": 5126,
      "count": 19259,
      "max": [
        0.9968589544296265,
        0.9983535408973694
      ],
      "min": [
        0.0018137663137167692,
        0.0017000949010252953
      ],
      "type": "VEC2"
    },
    {
      "bufferView": 1,
      "byteOffset": 154072,
      "componentType": 5126,
      "count": 19259,
      "max": [
        0.9968589544296265,
        0.9983535408973694
      ],
      "min": [
        0.0018137663137167692,
        0.0017000949010252953
      ],
      "type": "VEC2"
    },
    {
      "bufferView": 1,
      "byteOffset": 308144,
      "componentType": 5126,
      "count": 19259,
      "max": [
        0.9968589544296265,
        0.9983535408973694
      ],
      "min": [
        0.0018137663137167692,
        0.0017000949010252953
      ],
      "type": "VEC2"
    },
    {
      "bufferView": 1,
      "byteOffset": 462216,
      "componentType": 5126,
      "count": 19259,
      "max": [
        0.9968589544296265,
        0.9983535408973694
      ],
      "min": [
        0.0018137663137167692,
        0.0017000949010252953
      ],
      "type": "VEC2"
    },
    {
      "bufferView": 0,
      "componentType": 5125,
      "count": 60549,
      "type": "SCALAR"
    }
  ],
  "asset": {
    "extras": {
      "author": "Eriodas (https://sketchfab.com/serafindehielo)",
      "license": "CC-BY-4.0 (http://creativecommons.org/licenses/by/4.0/)",
      "source": "https://sketchfab.com/3d-models/warhammer-40k-bolt-rifle-7c21126db3274a44a818467f8c004a9f",
      "title": "Warhammer 40k Bolt Rifle"
    },
    "generator": "Sketchfab-15.47.0",
    "version": "2.0"
  },
  "bufferViews": [
    {
      "buffer": 0,
      "byteLength": 242196,
      "name": "floatBufferViews",
      "target": 34963
    },
    {
      "buffer": 0,
      "byteLength": 616288,
      "byteOffset": 242196,
      "byteStride": 8,
      "name": "floatBufferViews",
      "target": 34962
    },
    {
      "buffer": 0,
      "byteLength": 462216,
      "byteOffset": 858484,
      "byteStride": 12,
      "name": "floatBufferViews",
      "target": 34962
    },
    {
      "buffer": 0,
      "byteLength": 308144,
      "byteOffset": 1320700,
      "byteStride": 16,
      "name": "floatBufferViews",
      "target": 34962
    }
  ],
  "buffers": [
    {
      "byteLength": 1628844,
      "uri": "scene.bin"
    }
  ],
  "images": [
    {
      "uri": "textures/Bolt_Rifle_4K_baseColor.jpeg"
    },
    {
      "uri": "textures/Bolt_Rifle_4K_metallicRoughness.png"
    },
    {
      "uri": "textures/Bolt_Rifle_4K_normal.jpeg"
    }
  ],
  "materials": [
    {
      "name": "Bolt_Rifle_4K",
      "normalTexture": {
        "index": 2,
        "texCoord": 1
      },
      "pbrMetallicRoughness": {
        "baseColorTexture": {
          "index": 0
        },
        "metallicRoughnessTexture": {
          "index": 1
        }
      }
    }
  ],
  "meshes": [
    {
      "name": "Object_0",
      "primitives": [
        {
          "attributes": {
            "NORMAL": 1,
            "POSITION": 0,
            "TANGENT": 2,
            "TEXCOORD_0": 3,
            "TEXCOORD_1": 4,
            "TEXCOORD_2": 5,
            "TEXCOORD_3": 6
          },
          "indices": 7,
          "material": 0,
          "mode": 4
        }
      ]
    }
  ],
  "nodes": [
    {
      "children": [
        1
      ],
      "matrix": [
        1.0,
        0.0,
        0.0,
        0.0,
        0.0,
        2.220446049250313e-16,
        -1.0,
        0.0,
        0.0,
        1.0,
        2.220446049250313e-16,
        0.0,
        0.0,
        0.0,
        0.0,
        1.0
      ],
      "name": "Sketchfab_model"
    },
    {
      "children": [
        2
      ],
      "name": "root"
    },
    {
      "children": [
        3
      ],
      "matrix": [
        1.0,
        0.0,
        0.0,
        0.0,
        0.0,
        2.220446049250313e-16,
        1.0,
        0.0,
        0.0,
        -1.0,
        2.220446049250313e-16,
        0.0,
        0.0,
        0.0,
        0.0,
        1.0
      ],
      "name": "GLTF_SceneRootNode"
    },
    {
      "children": [
        4
      ],
      "matrix": [
        -1.4135375022887111,
        0.0,
        5.50451812276522e-07,
        0.0,
        -0.0,
        1.4135375022888184,
        0.0,
        0.0,
        -5.50451812276522e-07,
        0.0,
        -1.4135375022887111,
        0.0,
        -2.689877986907959,
        6.118440628051758,
        -53.11176681518555,
        1.0
      ],
      "name": "Bolt Rifle_1"
    },
    {
      "mesh": 0,
      "name": "Object_4"
    }
  ],
  "samplers": [
    {
      "magFilter": 9729,
      "minFilter": 9987,
      "wrapS": 10497,
      "wrapT": 10497
    }
  ],
  "scene": 0,
  "scenes": [
    {
      "name": "Sketchfab_Scene",
      "nodes": [
        0
      ]
    }
  ],
  "textures": [
    {
      "sampler": 0,
      "source": 0
    },
    {
      "sampler": 0,
      "source": 1
    },
    {
      "sampler": 0,
      "source": 2
    }
  ]
}
